<svg xmlns="http://www.w3.org/2000/svg" viewBox="0 0 2048 2048" width="512" height="512">
<path d="M 674.731 365.431 C 694.245 363.366 732.744 365.861 752.119 368.516 C 859.663 383.013 957.14 439.367 1023.37 525.33 C 1081.31 453.208 1161.14 401.882 1250.8 379.091 C 1358.81 350.343 1473.82 365.745 1570.46 421.899 C 1673.28 481.244 1747.91 579.465 1777.52 694.436 C 1801.21 787.183 1794.27 885.102 1757.76 973.586 C 1746.45 1000.58 1734.09 1021.95 1719.31 1047.22 C 1715.34 1008.6 1710.12 983.273 1695.09 947.161 C 1621.59 770.472 1412.93 695.128 1239.99 772.04 C 1213.06 784.369 1187.71 799.864 1164.45 818.197 C 1086.85 879.866 1036.45 969.458 1024.06 1067.81 C 1020.21 1055.34 1018.99 1038.08 1015.98 1024.59 C 987.931 898.977 890.376 788.823 764.435 754.624 C 558.268 698.641 351.502 829.703 328.711 1045.97 C 287.42 980.484 262.996 912.781 257.547 835.219 C 249.587 721.894 291.587 602.25 366.34 517.012 C 444.447 426.911 555.681 372.236 674.731 365.431 z" fill="#f22659"/>
<path d="M 368.797 1104.18 C 418.902 1060.74 501.6 1033.39 566.93 1026.96 C 795.083 1004.51 1002.77 1189.73 1022.08 1416.42 C 1022.78 1419.01 1022.62 1423.09 1024.77 1423.66 C 1038.44 1249.13 1167.2 1088.72 1335.91 1041.43 C 1452.47 1008.75 1583.78 1026.56 1678.68 1104.53 C 1663.03 1122.39 1634.12 1149.26 1616.24 1166.95 L 1504.75 1277.78 L 1236.17 1545.37 L 1091.48 1688.79 C 1068.99 1711.38 1046.32 1733.5 1024.57 1756.83 C 1018 1751.29 1009.4 1741.89 1003.08 1735.51 L 965.364 1697.72 C 922.883 1655.94 880.621 1613.95 838.578 1571.73 L 368.797 1104.18 z" fill="#f22659"/>
</svg>
