<?xml version="1.0" encoding="utf-8"?>
<!-- Generator: Adobe Illustrator 13.0.2, SVG Export Plug-In . SVG Version: 6.00 Build 14948)  -->
<!DOCTYPE svg PUBLIC "-//W3C//DTD SVG 1.1//EN" "http://www.w3.org/Graphics/SVG/1.1/DTD/svg11.dtd">
<svg version="1.1" xmlns="http://www.w3.org/2000/svg" xmlns:xlink="http://www.w3.org/1999/xlink" x="0px" y="0px" width="300px"
	 height="144.785px" viewBox="0 0 300 144.785" enable-background="new 0 0 300 144.785" xml:space="preserve">
<g id="Layer_1">
</g>
<g id="type">
	<path fill="#A09F9F" d="M57.73,96.266V43.81h10.878c7.845,0,13.538,0.633,17.081,1.892c5.086,1.781,9.063,4.874,11.929,9.271
		c2.865,4.398,4.297,9.642,4.297,15.727c0,5.253-1.134,9.879-3.405,13.87c-2.271,3.994-5.218,6.943-8.843,8.846
		c-3.625,1.902-8.707,2.85-15.245,2.85H57.73z M62.759,91.308h6.062c7.251,0,12.279-0.445,15.086-1.349
		c3.945-1.285,7.046-3.594,9.308-6.933c2.257-3.335,3.386-7.415,3.386-12.235c0-5.061-1.225-9.388-3.674-12.972
		c-2.449-3.585-5.86-6.047-10.234-7.376c-3.28-0.996-8.689-1.498-16.224-1.498h-3.711V91.308z"/>
	<path fill="#A09F9F" d="M147.257,57.469v38.797h-4.92v-6.665c-2.092,2.543-4.438,4.456-7.042,5.74
		c-2.605,1.284-5.451,1.925-8.539,1.925c-5.492,0-10.183-1.989-14.07-5.969c-3.885-3.983-5.829-8.83-5.829-14.534
		c0-5.588,1.96-10.367,5.884-14.337c3.922-3.97,8.641-5.953,14.156-5.953c3.185,0,6.067,0.677,8.647,2.032
		c2.581,1.355,4.846,3.384,6.794,6.1v-7.136H147.257z M127.307,61.285c-2.778,0-5.345,0.683-7.694,2.053
		c-2.351,1.36-4.22,3.279-5.61,5.748c-1.389,2.474-2.083,5.084-2.083,7.842c0,2.726,0.7,5.336,2.099,7.829
		c1.403,2.494,3.285,4.437,5.648,5.826c2.362,1.392,4.896,2.086,7.604,2.086c2.73,0,5.32-0.692,7.766-2.07
		c2.446-1.374,4.329-3.239,5.644-5.588c1.317-2.351,1.979-5.001,1.979-7.945c0-4.488-1.479-8.239-4.436-11.256
		C135.266,62.795,131.63,61.285,127.307,61.285z"/>
	<path fill="#A09F9F" d="M155.938,57.469h5.103v5.673c1.52-2.235,3.122-3.906,4.812-5.013c1.688-1.105,3.445-1.656,5.278-1.656
		c1.377,0,2.848,0.44,4.423,1.318l-2.605,4.21c-1.047-0.455-1.928-0.68-2.64-0.68c-1.664,0-3.268,0.684-4.815,2.052
		c-1.544,1.367-2.721,3.489-3.527,6.363c-0.621,2.212-0.926,6.68-0.926,13.406v13.124h-5.103V57.469z"/>
	<path fill="#A09F9F" d="M179.045,42.492h4.993v53.773h-4.993V42.492z"/>
	<path fill="#A09F9F" d="M196.143,41.496c1.139,0,2.109,0.404,2.915,1.21c0.804,0.807,1.204,1.785,1.204,2.925
		c0,1.117-0.4,2.08-1.204,2.89c-0.806,0.807-1.776,1.211-2.915,1.211c-1.108,0-2.067-0.404-2.874-1.211
		c-0.802-0.81-1.209-1.772-1.209-2.89c0-1.14,0.407-2.118,1.209-2.925C194.075,41.9,195.034,41.496,196.143,41.496z M193.669,57.469
		h4.989v38.797h-4.989V57.469z"/>
	<path fill="#A09F9F" d="M209.034,57.469h4.992v6.955c1.996-2.662,4.21-4.652,6.634-5.973c2.425-1.318,5.066-1.978,7.917-1.978
		c2.902,0,5.476,0.736,7.723,2.21c2.244,1.473,3.901,3.46,4.973,5.955c1.07,2.495,1.605,6.384,1.605,11.659v19.969h-4.992V77.757
		c0-4.465-0.186-7.449-0.556-8.947c-0.579-2.565-1.688-4.5-3.328-5.794c-1.643-1.296-3.782-1.946-6.424-1.946
		c-3.018,0-5.722,1-8.112,2.998c-2.388,1.999-3.963,4.471-4.725,7.417c-0.474,1.925-0.715,5.444-0.715,10.556v14.225h-4.992V57.469z
		"/>
	<path fill="#A09F9F" d="M284.373,57.469h4.99V88.39c0,5.444-0.475,9.425-1.429,11.941c-1.31,3.568-3.578,6.316-6.808,8.238
		c-3.234,1.929-7.124,2.891-11.663,2.891c-3.327,0-6.315-0.471-8.967-1.414c-2.653-0.942-4.812-2.204-6.472-3.794
		c-1.668-1.582-3.201-3.9-4.604-6.954h5.421c1.475,2.565,3.38,4.471,5.714,5.708c2.332,1.235,5.225,1.854,8.677,1.854
		c3.401,0,6.277-0.636,8.62-1.899c2.349-1.271,4.02-2.865,5.019-4.782c1-1.919,1.502-5.019,1.502-9.294V88.89
		c-1.883,2.376-4.178,4.2-6.894,5.472c-2.715,1.271-5.594,1.904-8.636,1.904c-3.573,0-6.928-0.883-10.068-2.654
		c-3.142-1.771-5.568-4.155-7.281-7.149c-1.714-2.995-2.573-6.289-2.573-9.876c0-3.591,0.894-6.936,2.68-10.04
		c1.783-3.099,4.253-5.558,7.406-7.368c3.152-1.803,6.479-2.706,9.978-2.706c2.901,0,5.61,0.598,8.121,1.8
		c2.511,1.2,4.93,3.182,7.268,5.937V57.469z M269.642,61.285c-2.831,0-5.456,0.683-7.881,2.053
		c-2.425,1.368-4.327,3.254-5.704,5.669c-1.383,2.414-2.071,5.022-2.071,7.825c0,4.263,1.428,7.773,4.281,10.559
		c2.852,2.783,6.546,4.169,11.09,4.169c4.585,0,8.279-1.376,11.07-4.131c2.795-2.759,4.194-6.386,4.194-10.879
		c0-2.924-0.644-5.532-1.931-7.83c-1.281-2.291-3.099-4.104-5.454-5.434C274.884,61.953,272.348,61.285,269.642,61.285z"/>
	<g>
		<path fill="#97141B" d="M40.273,85.677l8.558,2.744C45.24,94.057,39.63,96.874,32,96.874c-6.088,0-10.834-1.605-14.247-4.815
			c-3.411-3.207-5.116-7.429-5.116-12.659c0-5.323,1.757-9.771,5.277-13.336c3.518-3.567,7.998-5.349,13.445-5.349
			c3.945,0,7.357,0.996,10.232,2.995c2.879,1.998,4.874,4.482,5.992,7.451c1.116,2.975,1.676,6.289,1.676,9.953h-25.71
			c0.167,3.136,1.158,5.359,2.977,6.667c1.82,1.307,3.739,1.962,5.76,1.962C34.923,89.742,37.585,88.39,40.273,85.677z
			 M38.168,74.977c-0.257-1.925-1.01-3.565-2.259-4.92c-1.252-1.358-2.96-2.032-5.12-2.032c-4.045,0-6.399,2.321-7.063,6.952H38.168
			z"/>
	</g>
</g>
</svg>
